<svg xmlns="http://www.w3.org/2000/svg" width="340" height="200" viewBox="0 0 340 200"><style>* {
          font-family: Ubuntu, 'Lucida Grande', Arial, Helvetica, sans-serif
        }</style><rect x="1.5" y="1.5" rx="5" ry="5" height="98%" width="98%" stroke="#e4e2e2" stroke-width="1" fill="#ffffff" stroke-opacity="1"></rect><text x="30" y="40" style="font-size: 22px; fill: #586e75;">Top Languages by Commit</text><g transform="translate(0,40)"><g transform="translate(40,0)"><circle cy="24" r="8" fill="#2b7489" stroke="#ffffff" style="stroke-width: 1px;"></circle><circle cy="49.2" r="8" fill="#41b883" stroke="#ffffff" style="stroke-width: 1px;"></circle><circle cy="74.4" r="8" fill="#e34c26" stroke="#ffffff" style="stroke-width: 1px;"></circle><text x="16.8" y="30" style="fill: #586e75; font-size: 14px;">TypeScript</text><text x="16.8" y="55.2" style="fill: #586e75; font-size: 14px;">Vue</text><text x="16.8" y="80.4" style="fill: #586e75; font-size: 14px;">HTML</text></g><g transform="translate( 230, 80 )"><g class="arc"><path d="M3.67394039744206e-15,-60A60,60,0,1,1,-22.899324895006774,-55.4582808907103L-13.357939522087285,-32.35066385291434A35,35,0,1,0,2.1431318985078682e-15,-35Z" style="fill: #2b7489; stroke-width: 2px;" stroke="#ffffff"></path></g><g class="arc"><path d="M-22.899324895006774,-55.4582808907103A60,60,0,0,1,-8.514864753383126,-59.39273590458343L-4.96700443947349,-34.645762611007A35,35,0,0,0,-13.357939522087285,-32.35066385291434Z" style="fill: #41b883; stroke-width: 2px;" stroke="#ffffff"></path></g><g class="arc"><path d="M-8.514864753383126,-59.39273590458343A60,60,0,0,1,-6.431252637433369e-14,-60L-3.7515640385027985e-14,-35A35,35,0,0,0,-4.96700443947349,-34.645762611007Z" style="fill: #e34c26; stroke-width: 2px;" stroke="#ffffff"></path></g></g></g></svg>