<svg xmlns="http://www.w3.org/2000/svg" width="340" height="200" viewBox="0 0 340 200"><style>* {
          font-family: Ubuntu, 'Lucida Grande', Arial, Helvetica, sans-serif
        }</style><rect x="1.5" y="1.5" rx="5" ry="5" height="98%" width="98%" stroke="#e4e2e2" stroke-width="1" fill="#ffffff" stroke-opacity="1"></rect><text x="30" y="40" style="font-size: 22px; fill: #586e75;">Top Languages by Repo</text><g transform="translate(0,40)"><g transform="translate(40,0)"><circle cy="24" r="8" fill="#2b7489" stroke="#ffffff" style="stroke-width: 1px;"></circle><circle cy="49.2" r="8" fill="#f1e05a" stroke="#ffffff" style="stroke-width: 1px;"></circle><circle cy="74.4" r="8" fill="#e34c26" stroke="#ffffff" style="stroke-width: 1px;"></circle><circle cy="99.60000000000002" r="8" fill="#f34b7d" stroke="#ffffff" style="stroke-width: 1px;"></circle><circle cy="124.80000000000001" r="8" fill="#563d7c" stroke="#ffffff" style="stroke-width: 1px;"></circle><text x="16.8" y="30" style="fill: #586e75; font-size: 14px;">TypeScript</text><text x="16.8" y="55.2" style="fill: #586e75; font-size: 14px;">JavaScript</text><text x="16.8" y="80.4" style="fill: #586e75; font-size: 14px;">HTML</text><text x="16.8" y="105.60000000000002" style="fill: #586e75; font-size: 14px;">C++</text><text x="16.8" y="130.8" style="fill: #586e75; font-size: 14px;">CSS</text></g><g transform="translate( 230, 80 )"><g class="arc"><path d="M3.67394039744206e-15,-60A60,60,0,1,1,-28.905220446102927,52.578400802631805L-16.86137859356004,30.67073380153522A35,35,0,1,0,2.1431318985078682e-15,-35Z" style="fill: #2b7489; stroke-width: 2px;" stroke="#ffffff"></path></g><g class="arc"><path d="M-28.905220446102927,52.578400802631805A60,60,0,0,1,-59.88160370569629,-3.7674311717588274L-34.930935494989505,-2.1976681835259826A35,35,0,0,0,-16.86137859356004,30.67073380153522Z" style="fill: #f1e05a; stroke-width: 2px;" stroke="#ffffff"></path></g><g class="arc"><path d="M-59.88160370569629,-3.7674311717588274A60,60,0,0,1,-46.230794566547345,-38.2454393849214L-26.967963497152617,-22.30983964120415A35,35,0,0,0,-34.930935494989505,-2.1976681835259826Z" style="fill: #e34c26; stroke-width: 2px;" stroke="#ffffff"></path></g><g class="arc"><path d="M-46.230794566547345,-38.2454393849214A60,60,0,0,1,-22.08747316108067,-55.78658915329509L-12.884359343963723,-32.5421770060888A35,35,0,0,0,-26.967963497152617,-22.30983964120415Z" style="fill: #f34b7d; stroke-width: 2px;" stroke="#ffffff"></path></g><g class="arc"><path d="M-22.08747316108067,-55.78658915329509A60,60,0,0,1,-1.1021821192326178e-14,-60L-6.429395695523604e-15,-35A35,35,0,0,0,-12.884359343963723,-32.5421770060888Z" style="fill: #563d7c; stroke-width: 2px;" stroke="#ffffff"></path></g></g></g></svg>